<svg xmlns="http://www.w3.org/2000/svg" xmlns:xlink="http://www.w3.org/1999/xlink" viewBox="0 0 431.78 70.39"><defs><style>.cls-1{fill:#a4bfe4;}.cls-2{fill:url(#무제_그라디언트_20);}.cls-3{fill:#a7d5b3;}.cls-4{fill:url(#무제_그라디언트_31);}.cls-5{fill:#222;}.cls-6{fill:#606060;}.cls-7{fill:#f15922;}</style><linearGradient id="무제_그라디언트_20" x1="29.53" y1="39.58" x2="59.21" y2="39.58" gradientUnits="userSpaceOnUse"><stop offset="0" stop-color="#0360b5"/><stop offset="1" stop-color="#039ea6"/></linearGradient><linearGradient id="무제_그라디언트_31" y1="33.86" x2="29.53" y2="33.86" gradientUnits="userSpaceOnUse"><stop offset="0" stop-color="#05ad6b"/><stop offset="1" stop-color="#0382ad"/></linearGradient></defs><title>logo-ko (3)</title><g id="레이어_2" data-name="레이어 2"><g id="레이어_1-2" data-name="레이어 1"><g id="logo-ko"><polygon class="cls-1" points="29.53 22.47 29.53 67.75 59.21 56.69 59.21 33.75 29.53 22.47"/><polygon class="cls-2" points="29.53 22.47 29.53 45.25 59.21 56.69 59.21 33.75 29.53 22.47"/><polygon class="cls-3" points="29.53 0.4 29.53 45.25 0 34.41 0 11.47 29.53 0.4"/><polygon class="cls-4" points="29.53 22.47 0 34.41 29.53 45.25 29.53 22.47"/><path class="cls-5" d="M77.23,23.67c3.29-.11,6.62-.34,9.71-.71l.26,3.58a125.88,125.88,0,0,1-20.42,1.39l-.44-4.07c1.88,0,4,0,6.09-.05V13.56h4.8Zm2.66-4.34a72.84,72.84,0,0,0,.89-11.76H68.06v-4H85.57V6.44a77.33,77.33,0,0,1-.92,13.31Zm18-1H93.37V34.87H88.49V.15h4.88v14h4.57Z"/><path class="cls-5" d="M120.09,7.16h-20V3.24h7.54V0h4.91V3.24h7.57ZM110.07,21c-4.88,0-8.35-2.61-8.35-6.42s3.47-6.36,8.35-6.36,8.35,2.6,8.35,6.36S115,21,110.07,21Zm-5.91,2.33h22.68V34.94H122V27.36H104.15v-4Zm5.91-6.11c2.18,0,3.7-.87,3.7-2.64s-1.51-2.6-3.7-2.6-3.7.87-3.7,2.6S107.85,17.26,110.07,17.26Zm21.27-4h-4.5v8.71H122V.18h4.88V9.11h4.5Z"/><path class="cls-5" d="M151.7,3.76c0,10.63-3.5,19.3-15.59,25.25l-2.55-3.92c8.69-4.26,12.45-9.69,13.16-17.38H135.37V3.76ZM161.83.15V34.87h-4.92V.15Z"/><path class="cls-5" d="M184.69,17.71v2.22h9.24v9H175.31v2h19.51v3.73H170.47V25.51h18.65V23.62H170.43v-3.7h9.39V17.7H166.93V13.78h30.74V17.7h-13Zm9.84-5.35c-5.88-.64-10.09-2.9-12.23-6.07-2.14,3.17-6.39,5.43-12.26,6.07l-1.59-3.73C176.1,7.88,179.8,4.37,179.8,1V.38h5V1c0,3.35,3.7,6.86,11.35,7.61Z"/><path class="cls-5" d="M218.5,19.9a13,13,0,0,1-7.72-6.74,13.37,13.37,0,0,1-8.13,7.68l-2.47-3.92a11.55,11.55,0,0,0,8-10.67h-6.69v-4h18.28v4h-6.62A10.62,10.62,0,0,0,220.86,16ZM229,28.27c0,4.23-4.42,6.67-11.63,6.67s-11.67-2.45-11.67-6.67,4.42-6.67,11.67-6.67S229,24.05,229,28.27Zm-4.87,0c0-2-2.33-2.9-6.77-2.9s-6.8.94-6.8,2.9,2.33,2.91,6.8,2.91S224.08,30.22,224.08,28.27Zm-.15-19.71V.19h4.87V20.85h-4.87V12.6h-5.1v-4h5.1Z"/><path class="cls-5" d="M248.46,20.09a10.29,10.29,0,0,1-6.21-5.42,10.75,10.75,0,0,1-6.28,6L233.75,17a9.12,9.12,0,0,0,6.13-8.89V8h-5.17V4.06h5.17V.48h4.62V4.06h5.14V8H244.5v.12c0,3.5,1.89,6.78,6.13,8.33ZM239.38,23h23.41v12h-4.88V27H239.37V23ZM262.79.18v21.3h-4.62v-8.6h-2.55v8.4h-4.5V.79h4.5V8.9h2.55V.19h4.62Z"/><path class="cls-5" d="M280.38,9.53c0,5.65,2.73,11.65,8.42,14.06l-2.66,3.92a15.42,15.42,0,0,1-8.15-9.3c-1.52,4.52-4.25,8.33-8.24,10.17l-2.77-4c5.7-2.6,8.46-9,8.46-14.89V7.61h-7.09V3.51h19.06v4.1h-7V9.53Zm15-9.35V34.9h-4.88V.18Z"/><path class="cls-5" d="M330,30.34v4H304.8V24h4.73V19.34c-3,.15-5.83.2-8.39.2l-.63-4a185.73,185.73,0,0,0,21.65-1.05l.33,3.54a70.48,70.48,0,0,1-8.13,1V25.6h-4.69v4.75H330ZM303,7.57c0-3.7,3.5-6.22,8.49-6.22s8.46,2.53,8.46,6.22-3.51,6.19-8.46,6.19S303,11.27,303,7.57Zm4.62,0c0,1.69,1.59,2.56,3.88,2.56s3.84-.87,3.84-2.56S313.74,5,311.49,5,307.61,5.88,307.61,7.57Zm16.81,12.78V.18h4.88V26.49h-4.88V23.74H318V20.35Z"/><path class="cls-5" d="M346.88,7.88c0,6.56,2.48,12.93,8.1,15.49l-2.89,4c-3.73-1.84-6.2-5.24-7.61-9.42-1.48,4.44-4,8.06-7.82,10l-3-4c5.77-2.71,8.35-9.46,8.35-16.06v-5h4.91ZM362.66.15V35h-4.88V15h-6.54V11h6.54V.15Z"/><path class="cls-5" d="M374,2.94v8.4h7.1V2.94H386V26.87H369.2V2.94Zm0,20h7.1V15.22H374ZM395.72.15V35h-4.88V.15Z"/><path class="cls-5" d="M431.78,26.64v4H401v-4Zm-3.14-5.95c-5.91-1.21-10.27-4.55-12.45-9-2.18,4.41-6.5,7.8-12.42,9l-2.07-4.15c7.65-1.36,11.89-6.86,11.89-11.83V2.22h5.22V4.71c0,5.09,4.21,10.47,11.89,11.83Z"/><path class="cls-6" d="M77.67,56.84l6.58,8.77h-2.7l-5.34-7.23L74.52,60.2v5.41H72.39V50.15h2.13v7.39l6.77-7.39h2.6Z"/><path class="cls-6" d="M92.68,57.57c1.76-1.93,1.93-2.79,1.93-3.61v-.17c0-1.22-1-2-2.66-2a3.7,3.7,0,0,0-3.37,2.25L87,53a5.41,5.41,0,0,1,5-3.11c3.13,0,4.82,1.63,4.82,3.88V54c0,1.67-1,3.13-2.38,4.61l-4.82,5.14h7.76v1.85H86.91V63.83Z"/><path class="cls-6" d="M101.24,50.15h5.49c3.28,0,4.91,1.24,4.91,3.77v.45a3,3,0,0,1-2.49,3.09A3.35,3.35,0,0,1,112.34,61v.53c0,2.53-1.6,4.08-5,4.08h-6.15ZM103.36,52v4.69h2.74c2.15,0,3.37-.38,3.37-2.31V54c0-1.82-1.09-2-3.52-2Zm0,11.79h3.24c2.42,0,3.56-.45,3.56-2.27V61c0-1.89-1-2.62-4-2.62h-2.77v5.36Z"/><path class="cls-6" d="M115,62.48V61.9c0-2,1.27-3.39,4.27-3.39h3v-.69c0-1.56-.71-2.31-2.42-2.31a5.74,5.74,0,0,0-3.37,1.18l-1-1.55a7.48,7.48,0,0,1,4.42-1.48c2.62,0,4.46,1.38,4.46,3.73v8.22h-2V64.19h0a2.79,2.79,0,0,1-1.1,1,4.48,4.48,0,0,1-2.34.54C116.53,65.78,115,64.53,115,62.48Zm7.25-2.21h-2.94c-1.62,0-2.27.66-2.27,1.78v.3c0,1.13.92,1.63,2,1.63a3.6,3.6,0,0,0,2.38-.73,2,2,0,0,0,.79-1.82Z"/><path class="cls-6" d="M134.41,62.45v-.17c0-1-.47-1.31-2.68-1.76-2.6-.53-4-1.37-4-3.43v-.25c0-1.63,1.33-3.18,4.37-3.18a7.1,7.1,0,0,1,4.16,1.16l-.92,1.57a5.28,5.28,0,0,0-3.09-1c-1.73,0-2.44.6-2.44,1.42v.19c0,.92.71,1.27,2.53,1.61,2.85.54,4.2,1.39,4.2,3.56v.28c0,1.84-1.74,3.28-4.46,3.28a7.77,7.77,0,0,1-4.72-1.42l1-1.63A6.48,6.48,0,0,0,132,64C133.51,64,134.41,63.4,134.41,62.45Z"/><path class="cls-6" d="M148.93,64.49a7.56,7.56,0,0,1-4.53,1.29c-2.89,0-5.14-1.61-5.14-5.41V59.05c0-3.56,2.14-5.39,5-5.39s4.91,1.91,4.91,5.26v1.56h-7.9v.09c0,2.21,1.31,3.41,3.18,3.41a6.18,6.18,0,0,0,3.56-1Zm-7.62-6v.3h5.88V58.4a2.73,2.73,0,0,0-2.89-3A2.9,2.9,0,0,0,141.31,58.49Z"/><path class="cls-6" d="M158.3,57h7v1.8h-7Z"/><path class="cls-7" d="M180.43,56.84,187,65.61h-2.7L179,58.38l-1.69,1.82v5.41h-2.13V50.15h2.13v7.39l6.77-7.39h2.6Z"/><path class="cls-7" d="M192.18,50.15V65.61h-2.12V50.15Z"/><path class="cls-7" d="M204.79,61.66v-.34c0-1.35-.88-2-3.39-2.58-2.92-.62-5.15-1.52-5.15-4.31v-.38c0-2.1,1.74-4.14,5.3-4.14a8.16,8.16,0,0,1,4.72,1.35l-1,1.65a6.19,6.19,0,0,0-3.69-1.09c-1.93,0-3.19,1-3.19,2.21v.34c0,1.42,1.26,1.93,3.56,2.44,3.81.86,5,2.21,5,4.36v.38c0,2.83-2.34,4.29-5.51,4.29A8.7,8.7,0,0,1,196,64l1.07-1.74a8.4,8.4,0,0,0,4.38,1.63C203.67,63.91,204.79,62.88,204.79,61.66Z"/><path class="cls-7" d="M213.92,65.61V52H209.2V50.15h11.56V52h-4.71V65.61Z"/><path class="cls-7" d="M233.35,50.15V52h-7.5v4.8h7.05v1.82h-7.05v5.19h7.65v1.83h-9.78V50.15Z"/><path class="cls-7" d="M237.39,50.15h5.54c3.49,0,5.12,1.88,5.12,4.41V55c0,2.51-1.76,4.57-5.12,4.57h-3.41v6h-2.13ZM239.53,52v5.75h3c2.23,0,3.35-.9,3.35-2.77v-.39c0-1.75-1.12-2.59-3.11-2.59Z"/><path class="cls-6" d="M262.28,56.75l6.84,8.86h-1.93l-6-7.77-2,2v5.73h-1.5V50.15h1.5V58l7.47-7.8h2Z"/><path class="cls-6" d="M281.47,57.82v7.79H280V58.19c0-1.65-.62-3-2.91-3a3.24,3.24,0,0,0-3.31,2.94v7.51h-1.45V54.05h1.43v1.61a4.06,4.06,0,0,1,3.54-1.83C280,53.83,281.47,55.42,281.47,57.82Z"/><path class="cls-6" d="M295,59.09v1.43c0,3.33-1.82,5.26-4.91,5.26s-4.91-1.93-4.91-5.26V59.09c0-3.35,1.82-5.26,4.91-5.26S295,55.76,295,59.09Zm-1.48,1.35V59.17c0-2.72-1.31-4.05-3.43-4.05s-3.43,1.33-3.43,4.05v1.27c0,2.72,1.3,4,3.43,4S293.48,63.16,293.48,60.44Z"/><path class="cls-6" d="M300.5,65.61l-3.15-11.56h1.48l2.55,10.1,2.83-10.1h1.65l2.9,10.1,2.48-10.1h1.42l-3.09,11.56h-1.69L305,55.68l-2.8,9.93Z"/><path class="cls-6" d="M315.66,49.4h1.46V65.61h-1.46Z"/><path class="cls-6" d="M330,64.47a7.14,7.14,0,0,1-4.21,1.31c-3.06,0-4.89-1.93-4.89-5.3V59.05c0-3.29,1.8-5.22,4.7-5.22s4.65,2,4.65,5.26v1.2h-7.89v.19c0,2.55,1.33,4,3.45,4a5.91,5.91,0,0,0,3.54-1.13Zm-1.21-5.4v-.2c0-2.4-1.17-3.75-3.19-3.75s-3.24,1.48-3.24,3.75v.2Z"/><path class="cls-6" d="M341.39,64.08h0a3.88,3.88,0,0,1-3.43,1.7c-2.66,0-4.61-1.8-4.61-5v-2c0-3.15,1.95-5,4.59-5a4.11,4.11,0,0,1,3.45,1.63V49.4h1.46V65.61h-1.44Zm-6.6-3.47c0,2.47,1.29,3.88,3.22,3.88s3.36-1,3.36-3V58A3.23,3.23,0,0,0,338,55.12c-2,0-3.22,1.44-3.22,3.88Z"/><path class="cls-6" d="M354.62,63.87h0a3.84,3.84,0,0,1-3.41,1.69c-2.66,0-4.61-1.8-4.61-5V58.79c0-3.15,2-5,4.59-5a4.16,4.16,0,0,1,3.48,1.63V54.05h1.43V65.41c0,3.28-1.84,5-4.71,5a6.09,6.09,0,0,1-3.86-1.2l.66-1.14a4.88,4.88,0,0,0,3.2,1c2.12,0,3.26-1.14,3.26-3.56V63.87ZM348,60.4c0,2.46,1.29,3.88,3.22,3.88s3.36-1,3.36-3V58a3.23,3.23,0,0,0-3.36-2.87c-1.95,0-3.22,1.44-3.22,3.88Z"/><path class="cls-6" d="M369,64.47a7.08,7.08,0,0,1-4.2,1.31c-3.07,0-4.89-1.93-4.89-5.3V59.05c0-3.29,1.8-5.22,4.69-5.22s4.66,2,4.66,5.26v1.2h-7.89v.19c0,2.55,1.33,4,3.45,4a6,6,0,0,0,3.54-1.13Zm-1.2-5.4v-.2c0-2.4-1.18-3.75-3.2-3.75s-3.23,1.48-3.23,3.75v.2Z"/><path class="cls-6" d="M379.22,50.15h4.93c3.28,0,4.91,1.24,4.91,3.77v.45a3,3,0,0,1-2.48,3.09A3.35,3.35,0,0,1,389.77,61v.53c0,2.53-1.61,4.08-4.95,4.08h-5.6Zm1.48,1.3V56.9h3.5c2.14,0,3.36-.64,3.36-2.57v-.39c0-1.82-1.09-2.49-3.51-2.49Zm0,12.83h4c2.42,0,3.56-1,3.56-2.77V61c0-1.89-.94-2.87-4-2.87H380.7Z"/><path class="cls-6" d="M392.62,62.48V62c0-1.86,1.4-3.17,4.08-3.17H400V57.76a2.42,2.42,0,0,0-2.75-2.62,6.13,6.13,0,0,0-3.41,1.18l-.71-1.11a7,7,0,0,1,4.14-1.38c2.58,0,4.16,1.36,4.16,3.69v8.09H400V64.19h0a3.29,3.29,0,0,1-1.29,1.1,5.31,5.31,0,0,1-2.34.49C394.15,65.78,392.62,64.51,392.62,62.48ZM400,60.05h-3.24c-1.84,0-2.64.84-2.64,2v.34a2.19,2.19,0,0,0,2.47,2.1,4.1,4.1,0,0,0,2.31-.66A2.1,2.1,0,0,0,400,62Z"/><path class="cls-6" d="M412,62.6v-.21c0-1.16-.9-1.67-3.11-2.1s-3.84-1.2-3.84-3.09v-.3c0-1.65,1.35-3.07,4.18-3.07a6.36,6.36,0,0,1,4,1.21l-.66,1.09a5.49,5.49,0,0,0-3.35-1c-1.74,0-2.68.79-2.68,1.8v.24c0,1,1.07,1.52,2.89,1.86,2.86.54,4.06,1.46,4.06,3.31v.32c0,1.84-1.8,3.13-4.25,3.13a7.49,7.49,0,0,1-4.44-1.35l.71-1.16a6.55,6.55,0,0,0,3.65,1.2C411,64.47,412,63.59,412,62.6Z"/><path class="cls-6" d="M425.52,64.47a7.09,7.09,0,0,1-4.21,1.31c-3.06,0-4.88-1.93-4.88-5.3V59.05c0-3.29,1.8-5.22,4.69-5.22s4.65,2,4.65,5.26v1.2h-7.89v.19c0,2.55,1.33,4,3.46,4a5.9,5.9,0,0,0,3.53-1.13Zm-1.2-5.4v-.2c0-2.4-1.18-3.75-3.2-3.75s-3.24,1.48-3.24,3.75v.2Z"/></g></g></g></svg>