<?xml version="1.0" encoding="utf-8"?>
<!-- Generator: Adobe Illustrator 23.0.1, SVG Export Plug-In . SVG Version: 6.00 Build 0)  -->
<svg version="1.0" id="레이어_1" xmlns="http://www.w3.org/2000/svg" xmlns:xlink="http://www.w3.org/1999/xlink" x="0px"
	 y="0px" viewBox="0 0 250 74" style="enable-background:new 0 0 250 74;" xml:space="preserve">
<style type="text/css">
	.st0{fill:#A4BFE4;}
	.st1{fill:url(#SVGID_1_);}
	.st2{fill:#A7D5B3;}
	.st3{fill:url(#SVGID_2_);}
	.st4{fill:#040000;}
	.st5{fill:#E55826;}
	.st6{fill:#5F5F5F;}
</style>
<g>
	<polygon class="st0" points="32.43,24.14 32.43,73.75 64.96,61.63 64.96,36.5 	"/>
	<linearGradient id="SVGID_1_" gradientUnits="userSpaceOnUse" x1="32.4311" y1="42.8864" x2="64.9572" y2="42.8864">
		<stop  offset="0" style="stop-color:#0C5CA8"/>
		<stop  offset="1" style="stop-color:#17979E"/>
	</linearGradient>
	<polygon class="st1" points="32.43,24.14 32.43,49.09 64.96,61.63 64.96,36.5 	"/>
	<polygon class="st2" points="32.43,-0.04 32.43,49.09 0.09,37.22 0.09,12.09 	"/>
	<linearGradient id="SVGID_2_" gradientUnits="userSpaceOnUse" x1="0.0873" y1="36.6174" x2="32.4311" y2="36.6174">
		<stop  offset="0" style="stop-color:#1EA569"/>
		<stop  offset="1" style="stop-color:#157CA4"/>
	</linearGradient>
	<polygon class="st3" points="32.43,24.14 0.09,37.22 32.43,49.09 	"/>
</g>
<g>
	<polygon class="st4" points="106.9,8.92 99.13,8.92 85.86,24.33 85.86,8.92 79.21,8.92 79.21,44.03 85.86,44.03 85.86,32.5 
		88.8,29.29 99.16,44.03 107.56,44.03 93.27,24.45 	"/>
	<path class="st4" d="M128.84,28.59c3.36-3.36,5.07-6.93,5.07-10.59v-0.48c0-4.41-3-9.13-11.44-9.13c-5.38,0-9.33,2.43-12.08,7.43
		l-0.11,0.2l5.03,3.3l0.13-0.23c2.33-4.16,4.88-4.72,7.08-4.72c2.94,0,4.69,1.27,4.69,3.4v0.38c0,2.02-0.3,3.75-4.2,7.75L110.29,39
		l-0.07,0.07v4.96h24.98v-5.59h-16.12L128.84,28.59z"/>
	<path class="st4" d="M162.07,25.53c3.02-1.09,4.67-3.51,4.67-6.91v-1.01c0-5.85-3.65-8.7-11.15-8.7H141.9v35.11h15.18
		c7.25,0,11.24-3.33,11.24-9.37v-1.2C168.32,29.25,166.11,26.47,162.07,25.53z M160,18.82c0,4.03-2.35,4.21-7.24,4.21h-4.26V14.5
		h4.46c5.33,0,7.05,0.84,7.05,3.45V18.82z M148.5,28.52h4.41c6.53,0,8.63,1.07,8.63,4.41v1.06c0,3.83-2.28,4.45-7.72,4.45h-5.32
		V28.52z"/>
	<path class="st4" d="M184.1,16.5c-4.87,0-8.25,1.92-10.66,3.6l-0.2,0.14l3.26,4.84l0.21-0.17c2.22-1.74,4.62-2.59,7.33-2.59
		c3.16,0,4.45,1.26,4.45,4.36v0.76h-5.8c-6.79,0-10.24,2.62-10.24,7.79v1.54c0,4.79,3.45,7.64,9.23,7.64c2.67,0,5.9-1.11,7.31-3.02
		l0.08,2.63h5.92V25.2C195.01,19.92,190.73,16.5,184.1,16.5z M188.51,32.65v0.47c0,1.94,0,3.01-1.03,4c-1.19,1.19-2.78,1.7-5.3,1.7
		c-2.16,0-3.35-0.88-3.35-2.49v-0.58c0-2.15,1.24-3.11,4.02-3.11H188.51z"/>
	<path class="st4" d="M211.8,27.21c-4.21-0.84-4.7-1.12-4.7-2.73v-0.29c0-0.52,0-2.1,4.7-2.1c2.5,0,4.66,0.57,6.24,1.64l0.22,0.15
		l2.85-4.8l-0.2-0.13c-3.22-2.17-6.98-2.44-9.88-2.44c-7.73,0-10.48,4.12-10.48,7.64v0.48c0,4.96,2.4,7.19,9.18,8.5
		c4.89,0.95,5.32,1.35,5.32,2.97v0.29c0,1.65-1.31,2.39-4.26,2.39c-2.84,0-5.44-0.86-8.17-2.69l-0.22-0.15l-2.93,5.02l0.17,0.13
		c2.56,2.08,6.79,3.32,11.29,3.32c7.4,0,10.76-4.11,10.76-7.93v-0.53C221.7,30.17,218.65,28.58,211.8,27.21z"/>
	<path class="st4" d="M249.63,28.37c0-7.43-4.42-11.87-11.82-11.87c-7.7,0-12.3,4.71-12.3,12.59v2.74c0,8,4.5,12.59,12.35,12.59
		c4.55,0,8.14-0.94,10.99-2.88l0.19-0.13l-2.74-4.79l-0.22,0.13c-2.63,1.53-4.84,2.13-7.89,2.13c-4.02,0-6.19-2.03-6.28-5.88h17.71
		V28.37z M231.92,27.93v-0.76c0-3.14,2.28-5.17,5.8-5.17c3.56,0,5.61,1.83,5.61,5.03v0.9H231.92z"/>
</g>
<g>
	<path class="st5" d="M82.93,61.73l4.76,6.34h-1.95l-3.86-5.22l-1.22,1.32v3.91h-1.53V56.89h1.53v5.35l4.9-5.35h1.88L82.93,61.73z"
		/>
	<path class="st5" d="M90.8,56.89v11.18h-1.53V56.89H90.8z"/>
	<path class="st5" d="M99.3,65.22v-0.25c0-0.98-0.64-1.47-2.45-1.86c-2.11-0.45-3.72-1.1-3.72-3.12v-0.28
		c0-1.52,1.26-2.99,3.83-2.99c1.36,0,2.47,0.34,3.41,0.98l-0.73,1.19c-0.82-0.56-1.64-0.79-2.67-0.79c-1.4,0-2.31,0.71-2.31,1.6
		v0.25c0,1.02,0.92,1.4,2.57,1.77c2.76,0.62,3.61,1.6,3.61,3.15v0.28c0,2.05-1.69,3.1-3.98,3.1c-1.58,0-2.96-0.57-3.89-1.32
		l0.77-1.26c0.84,0.64,2.2,1.18,3.16,1.18C98.49,66.85,99.3,66.1,99.3,65.22z"/>
	<path class="st5" d="M105.28,68.07v-9.86h-3.41v-1.32h8.36v1.32h-3.41v9.86H105.28z"/>
	<path class="st5" d="M118.71,56.89v1.32h-5.43v3.47h5.1V63h-5.1v3.75h5.53v1.32h-7.07V56.89H118.71z"/>
	<path class="st5" d="M121.01,56.89h4c2.53,0,3.71,1.36,3.71,3.19v0.33c0,1.81-1.27,3.3-3.71,3.3h-2.46v4.36h-1.54V56.89z
		 M122.55,58.23v4.15h2.2c1.61,0,2.42-0.65,2.42-2V60.1c0-1.27-0.81-1.88-2.25-1.88H122.55z"/>
	<path class="st6" d="M137.75,61.67l4.95,6.4h-1.4l-4.33-5.61l-1.43,1.47v4.14h-1.09V56.89h1.09v5.64l5.4-5.64h1.46L137.75,61.67z"
		/>
	<path class="st6" d="M151.01,62.44v5.63h-1.05v-5.36c0-1.19-0.45-2.19-2.11-2.19c-1.41,0-2.39,1.15-2.39,2.12v5.43h-1.05v-8.36
		h1.04v1.16c0.39-0.63,1.24-1.32,2.56-1.32C149.91,59.56,151.01,60.71,151.01,62.44z"/>
	<path class="st6" d="M160.14,63.36v1.04c0,2.4-1.32,3.8-3.55,3.8s-3.55-1.39-3.55-3.8v-1.04c0-2.42,1.32-3.8,3.55-3.8
		S160.14,60.96,160.14,63.36z M159.07,64.34v-0.92c0-1.97-0.95-2.93-2.48-2.93s-2.48,0.96-2.48,2.93v0.92
		c0,1.97,0.95,2.93,2.48,2.93S159.07,66.3,159.07,64.34z"/>
	<path class="st6" d="M163.53,68.07l-2.28-8.36h1.07l1.84,7.3l2.05-7.3h1.19l2.09,7.3l1.8-7.3h1.02l-2.23,8.36h-1.22l-2.08-7.18
		l-2.03,7.18H163.53z"/>
	<path class="st6" d="M173.87,56.35h1.05v11.72h-1.05V56.35z"/>
	<path class="st6" d="M183.59,67.25c-0.67,0.46-1.63,0.95-3.04,0.95c-2.22,0-3.53-1.39-3.53-3.83v-1.04c0-2.37,1.3-3.77,3.4-3.77
		c2.17,0,3.36,1.46,3.36,3.8v0.87h-5.71v0.14c0,1.84,0.96,2.9,2.5,2.9c1.12,0,1.95-0.39,2.56-0.82L183.59,67.25z M182.72,63.34V63.2
		c0-1.74-0.85-2.71-2.31-2.71c-1.47,0-2.34,1.07-2.34,2.71v0.14H182.72z"/>
	<path class="st6" d="M191.23,66.97h-0.02c-0.46,0.84-1.52,1.22-2.48,1.22c-1.92,0-3.33-1.3-3.33-3.58v-1.47
		c0-2.28,1.41-3.58,3.32-3.58c1.22,0,2.06,0.56,2.5,1.18v-4.39h1.05v11.72h-1.04V66.97z M186.45,64.46c0,1.78,0.93,2.81,2.33,2.81
		c1.35,0,2.43-0.71,2.43-2.19v-2.51c0-0.98-1.01-2.08-2.43-2.08c-1.41,0-2.33,1.04-2.33,2.81V64.46z"/>
	<path class="st6" d="M200.17,66.82h-0.02c-0.47,0.84-1.5,1.22-2.46,1.22c-1.92,0-3.33-1.3-3.33-3.58v-1.32
		c0-2.28,1.41-3.58,3.32-3.58c1.22,0,2.08,0.56,2.51,1.18v-1.02h1.04v8.22c0,2.37-1.33,3.6-3.41,3.6c-1.18,0-2.09-0.33-2.79-0.87
		l0.48-0.82c0.77,0.54,1.36,0.7,2.31,0.7c1.53,0,2.36-0.82,2.36-2.57V66.82z M195.41,64.3c0,1.78,0.93,2.81,2.33,2.81
		c1.35,0,2.43-0.71,2.43-2.19v-2.36c0-0.98-1.01-2.08-2.43-2.08c-1.41,0-2.33,1.04-2.33,2.81V64.3z"/>
	<path class="st6" d="M209.91,67.25c-0.67,0.46-1.63,0.95-3.04,0.95c-2.22,0-3.53-1.39-3.53-3.83v-1.04c0-2.37,1.3-3.77,3.4-3.77
		c2.17,0,3.36,1.46,3.36,3.8v0.87h-5.71v0.14c0,1.84,0.96,2.9,2.5,2.9c1.12,0,1.95-0.39,2.56-0.82L209.91,67.25z M209.04,63.34V63.2
		c0-1.74-0.85-2.71-2.31-2.71c-1.47,0-2.34,1.07-2.34,2.71v0.14H209.04z"/>
	<path class="st6" d="M216.09,56.89h3.57c2.37,0,3.55,0.9,3.55,2.73v0.33c0,0.98-0.46,1.91-1.8,2.23c1.36,0.2,2.31,1.01,2.31,2.56
		v0.39c0,1.83-1.16,2.95-3.58,2.95h-4.05V56.89z M217.16,57.84v3.94h2.53c1.55,0,2.43-0.46,2.43-1.86v-0.28
		c0-1.32-0.79-1.8-2.54-1.8H217.16z M217.16,67.11h2.88c1.75,0,2.57-0.68,2.57-2v-0.34c0-1.36-0.68-2.08-2.92-2.08h-2.54V67.11z"/>
	<path class="st6" d="M225.16,65.81v-0.34c0-1.35,1.01-2.29,2.95-2.29h2.36V62.4c0-1.21-0.68-1.89-1.98-1.89
		c-0.9,0-1.75,0.36-2.46,0.85l-0.51-0.81c0.77-0.54,1.72-0.99,2.99-0.99c1.86,0,3.01,0.98,3.01,2.67v5.84h-1.02v-1.02h-0.02
		c-0.16,0.26-0.5,0.57-0.93,0.79c-0.46,0.23-1.05,0.36-1.69,0.36C226.26,68.2,225.16,67.28,225.16,65.81z M230.46,64.06h-2.34
		c-1.33,0-1.91,0.6-1.91,1.46v0.25c0,1.08,0.93,1.52,1.78,1.52c0.67,0,1.18-0.17,1.67-0.48c0.45-0.28,0.79-0.7,0.79-1.33V64.06z"/>
	<path class="st6" d="M238.57,65.9v-0.16c0-0.84-0.65-1.21-2.25-1.52c-1.67-0.33-2.78-0.87-2.78-2.23v-0.22
		c0-1.19,0.98-2.22,3.02-2.22c1.27,0,2.19,0.36,2.87,0.87l-0.48,0.79c-0.7-0.47-1.35-0.73-2.42-0.73c-1.26,0-1.94,0.57-1.94,1.3
		v0.17c0,0.73,0.78,1.1,2.09,1.35c2.06,0.39,2.93,1.05,2.93,2.39v0.23c0,1.33-1.3,2.26-3.07,2.26c-1.35,0-2.42-0.4-3.21-0.98
		l0.51-0.84c0.76,0.51,1.66,0.87,2.64,0.87C237.84,67.25,238.57,66.61,238.57,65.9z"/>
	<path class="st6" d="M247.7,67.25c-0.67,0.46-1.63,0.95-3.04,0.95c-2.22,0-3.54-1.39-3.54-3.83v-1.04c0-2.37,1.3-3.77,3.4-3.77
		c2.17,0,3.36,1.46,3.36,3.8v0.87h-5.71v0.14c0,1.84,0.96,2.9,2.5,2.9c1.12,0,1.95-0.39,2.56-0.82L247.7,67.25z M246.83,63.34V63.2
		c0-1.74-0.85-2.71-2.31-2.71c-1.47,0-2.34,1.07-2.34,2.71v0.14H246.83z"/>
</g>
</svg>
